<?xml version="1.0" encoding="UTF-8" standalone="no"?>
<svg
   height="24"
   viewBox="0 -960 960 960"
   width="24"
   version="1.1"
   id="svg1"
   xml:space="preserve"
   xmlns="http://www.w3.org/2000/svg"
   xmlns:svg="http://www.w3.org/2000/svg"><defs
     id="defs1" /><path
     d="m 863.77837,-362.25516 v -80 H 449.87106 v 80 z m 0,-155.48968 v -80 H 516.48185 v 80 z"
     id="path1"
     style="display:inline" /><path
     d="M 440,-120 313,-234 c -48,-43.33333 -89.16667,-82 -123.5,-116 -34.33333,-34 -62.66667,-66 -85,-96 -22.333333,-30 -38.666667,-59 -49,-87 -10.333333,-28 -15.5,-57.33333 -15.5,-88 0,-62.66667 21,-114.83333 63,-156.5 42,-41.66667 94.33333,-62.5 157,-62.5 34.66667,0 67.66667,7.33333 99,22 31.33333,14.66667 58.33333,35.33333 81,62 22.66667,-26.66667 49.66667,-47.33333 81,-62 31.33333,-14.66667 64.33333,-22 99,-22 54,0 99.33333,15.16667 136,45.5 36.66667,30.33333 61.66667,68.5 75,114.5 h -85 c -12,-26.66667 -29.66667,-46.66667 -53,-60 -23.33333,-13.33333 -47.66667,-20 -73,-20 -34,0 -63.33333,9.16667 -88,27.5 -24.66667,18.33333 -47.66667,42.5 -69,72.5 h -46 c -20.66667,-30 -44.16667,-54.16667 -70.5,-72.5 -26.33333,-18.33333 -55.16667,-27.5 -86.5,-27.5 -38,0 -70.83333,13.16667 -98.5,39.5 -27.66667,26.33333 -41.5,59.5 -41.5,99.5 0,22 4.66667,44.33333 14,67 9.33333,22.66667 26,48.83333 50,78.5 24,29.66667 56.66667,64.33333 98,104 41.33333,39.66667 94,87.5 158,143.5 17.33333,-15.33333 112.08378,-94.70481 112.08378,-94.70481 l 52.4394,56.84256 c 0,0 -23.85651,21.69558 -46.52318,41.36225 -22.66667,19.66667 -42.66667,37.16667 -60,52.5 z"
     id="path1-5" /></svg>
