<?xml version="1.0" encoding="UTF-8" standalone="no"?>
<svg
   height="24"
   viewBox="0 -960 960 960"
   width="24"
   version="1.1"
   id="svg1"
   sodipodi:docname="playlist_remove_FILL0_wght400_GRAD0_opsz24.svg"
   xml:space="preserve"
   inkscape:version="1.3.2 (091e20ef0f, 2023-11-25)"
   xmlns:inkscape="http://www.inkscape.org/namespaces/inkscape"
   xmlns:sodipodi="http://sodipodi.sourceforge.net/DTD/sodipodi-0.dtd"
   xmlns="http://www.w3.org/2000/svg"
   xmlns:svg="http://www.w3.org/2000/svg"><defs
     id="defs1" /><sodipodi:namedview
     id="namedview1"
     pagecolor="#ffffff"
     bordercolor="#000000"
     borderopacity="0.25"
     inkscape:showpageshadow="2"
     inkscape:pageopacity="0.0"
     inkscape:pagecheckerboard="0"
     inkscape:deskcolor="#d1d1d1"
     inkscape:zoom="11.213473"
     inkscape:cx="3.2996021"
     inkscape:cy="12.618748"
     inkscape:window-width="1366"
     inkscape:window-height="739"
     inkscape:window-x="0"
     inkscape:window-y="0"
     inkscape:window-maximized="1"
     inkscape:current-layer="svg1" /><path
     d="m 120,-320 v -80 h 280 v 80 z m 0,-160 v -80 h 440 v 80 z m 0,-160 v -80 h 440 v 80 z"
     id="path1"
     sodipodi:nodetypes="ccccccccccccccc" /><path
     d="m 665.61308,-80 -25.2861,-22.67031 q -44.0327,-39.67302 -72.80655,-68.44686 -28.77384,-28.77384 -45.77656,-51.66212 -17.00273,-22.88829 -23.76022,-42.07085 -6.75749,-19.18256 -6.75749,-39.23705 0,-40.98093 27.46594,-68.44688 Q 546.15804,-400 587.13897,-400 q 22.67029,0 43.16076,9.59128 20.49046,9.59128 35.31335,27.02998 14.82289,-17.4387 35.31335,-27.02998 Q 721.4169,-400 744.08719,-400 q 40.98093,0 68.44688,27.46593 Q 840,-345.06812 840,-304.08719 q 0,20.05449 -6.7575,39.23705 -6.75748,19.18256 -23.76021,42.07085 -17.00272,22.88828 -45.77657,51.66212 -28.77384,28.77384 -72.80654,68.44686 z"
     id="path1-5"
     style="stroke-width:0.435967" /></svg>
