<?xml version="1.0" encoding="UTF-8" standalone="no"?>
<svg
   height="24"
   viewBox="0 -960 960 960"
   width="24"
   version="1.1"
   id="svg1"
   xmlns="http://www.w3.org/2000/svg"
   xmlns:svg="http://www.w3.org/2000/svg">
  <defs
     id="defs1" />
  <path
     d="M 678.73818,-157.97202 C 660.10644,-437.36203 437.35468,-660.10656 157.97202,-678.73815 137.03558,-680.13437 120,-697.01318 120,-718 v -44 c 0,-20.98682 17.02817,-38.10994 37.98126,-36.96718 346.35349,18.88982 622.09616,294.6368 640.98591,640.98592 C 800.10995,-137.02817 782.98682,-120 762,-120 h -44 c -20.98682,0 -37.86563,-17.03558 -39.26182,-37.97202 z m -240.97396,0.06 C 420.41436,-304.06063 304.05943,-420.41439 157.91202,-437.76421 137.08367,-440.23684 120,-457.01318 120,-478 v -44 c 0,-20.98682 17.04976,-38.17169 37.95435,-36.38874 212.84564,18.15359 382.28072,187.58534 400.43441,400.43439 C 560.17169,-137.04976 542.98682,-120 522,-120 h -44 c -20.98682,0 -37.76316,-17.08367 -40.23578,-37.91202 z"
     id="path1"
     style="font-variation-settings:normal;opacity:1;vector-effect:none;fill:#ffffff;fill-opacity:1;stroke-width:1;stroke-linecap:butt;stroke-linejoin:miter;stroke-miterlimit:4;stroke-dasharray:none;stroke-dashoffset:0;stroke-opacity:1;-inkscape-stroke:none;stop-color:#000000;stop-opacity:1"
     transform="matrix(0.45070837,0,0,0.45070837,252.40534,-252.40534)" />
</svg>
